# xmcd
#
# Track frame offsets:
#	150
#	19648
#	36166
#	48580
#	64134
#	82571
#	102037
#	119964
#	133336
#	149553
#	164819
#	181773
#	199740
#	222605
#	238087
#	254562
#	271130
#	284256
#	296725
#	312740
#	335576
#
# Disc length: 4733 seconds
#
# Revision: 1
# Processed by: cddbd v1.4PL0 Copyright (c) Steve Scherf et al.
# Submitted via: audiograbber 1.80
#
DISCID=58127b15
DTITLE=Various Artist - Hott Country 050
DYEAR=1900
DGENRE=
TTITLE0=Dixie Chicks - Goodbye Earl
TTITLE1=Scooter Lee - J'ai Du Boogie
TTITLE2=Brent Howard - At The Rodeo
TTITLE3=Wilkinsons - Jimmy's Got  A Girlfriend
TTITLE4=Tara Lynn Hart - That's When You Came Along
TTITLE5=Jason Sellers - Can't Help Calling Your Name
TTITLE6=Keith Urban - Your Everything
TTITLE7=Joe Diffie - It's Always Something
TTITLE8=Michelle Wright - I Surrender
TTITLE9=Chad Brock - Yes!
TTITLE10=Julian Austin - Tahe The Money And Run
TTITLE11=Clay Davidson - Unconditional
TTITLE12=Don Neilson - Living Proof
TTITLE13=Toby Keith - How Do You Like Me Now
TTITLE14=Wade Hayes - Up North ( Down South, Back East, Out West )
TTITLE15=Collin Raye - Couldn't Last A Moment
TTITLE16=Brooks and Dunn - Goin' Under Gettin' Over You
TTITLE17=Blackhawk - I Need You All The Time
TTITLE18=Gil Grand - Love Me Or Not ( Here I Come )
TTITLE19=Clay Walker - The Chain Of Love
TTITLE20=Dan Hill - Once Upon A Time
EXTD=
EXTT0=
EXTT1=
EXTT2=
EXTT3=
EXTT4=
EXTT5=
EXTT6=
EXTT7=
EXTT8=
EXTT9=
EXTT10=
EXTT11=
EXTT12=
EXTT13=
EXTT14=
EXTT15=
EXTT16=
EXTT17=
EXTT18=
EXTT19=
EXTT20=
PLAYORDER=
